<svg height="60" viewBox="0 0 60 60" width="60" xmlns="http://www.w3.org/2000/svg"><g style="stroke:#535353;stroke-width:2;stroke-linecap:round;stroke-linejoin:round;fill:none;fill-rule:evenodd" transform="translate(5 7)"><path d="m18.1327868.93232257c-2.5780112.98960577-3.5447746 4.71768711-2.1593265 8.32690274 1.3839123 3.60521479 7.0265397 6.24077489 7.0265397 6.24077489s5.9253523-2.6355601 7.3092646-6.24077489c1.3854481-3.60921563.4186847-7.33729697-2.1593265-8.32690274-1.6226409-.62287349-3.4968491-.01240091-5.0085757 1.42556819 0 0-3.3859347-2.04844168-5.0085756-1.42556819z" fill="#d8d8d8"/><path d="m26.9244035 46.8154782c2.3703905 1.3885634 5.1300405 2.1845218 8.0755965 2.1845218 8.836556 0 16-7.163444 16-16s-7.163444-16-16-16-16 7.163444-16 16c0 3.2290072.9565195 6.2346073 2.6016685 8.7489103"/><path d="m20.1652501 20.1484669c-1.7404114-.7394119-3.6550608-1.1484669-5.6652501-1.1484669-8.00812887 0-14.5 6.4918711-14.5 14.5s6.49187113 14.5 14.5 14.5c8.0081289 0 14.5-6.4918711 14.5-14.5 0-3.3205528-1.1161654-6.3804112-2.9937771-8.824856"/></g></svg>